<svg xmlns="http://www.w3.org/2000/svg" version="1.1" xmlns:xlink="http://www.w3.org/1999/xlink" xmlns:svgjs="http://svgjs.dev/svgjs" width="1500" height="1500" viewBox="0 0 1500 1500"><g transform="matrix(1,0,0,1,0,0.00044372485979238263)"><svg viewBox="0 0 280 280" data-background-color="#110f10" preserveAspectRatio="xMidYMid meet" height="1500" width="1500" xmlns="http://www.w3.org/2000/svg" xmlns:xlink="http://www.w3.org/1999/xlink"><g id="tight-bounds" transform="matrix(1,0,0,1,0,-0.00008282864050102035)"><svg viewBox="0 0 280 280" height="280" width="280"><g><svg viewBox="0 0 280 280" height="280" width="280"><g><svg viewBox="0 0 280 280" height="280" width="280"><g id="textblocktransform"><svg viewBox="0 0 280 280" height="280" width="280" id="textblock"><g><svg viewBox="0 0 280 280" height="280" width="280"><g transform="matrix(1,0,0,1,57.50420886156945,57.50420886156945)"><svg viewBox="0 0 164.9915822768611 164.9915822768611" height="164.9915822768611" width="164.9915822768611"><g id="icon-0"><circle r="82" cx="82.49579113843055" cy="82.49579113843055" fill="#f5f1f0" data-fill-palette-color="accent"></circle><svg xmlns="http://www.w3.org/2000/svg" xmlns:xlink="http://www.w3.org/1999/xlink" version="1.1" x="24.74873734152917" y="24.748737341529164" viewBox="5 6.7 90.02750241995145 86.7" enable-background="new 0 0 100 100" xml:space="preserve" height="115.49410759380275" width="115.49410759380275" class="icon-jxe-0" data-fill-palette-color="quaternary" id="jxe-0"><g fill="#110f10" data-fill-palette-color="quaternary"><path fill="#110f10" d="M52.5 51.5C64.3 51.5 73.9 41.4 73.9 29.1 73.9 16.7 64.3 6.7 52.5 6.7S31.1 16.7 31.1 29C31.1 41.4 40.7 51.5 52.5 51.5M52.5 7.7C63.7 7.7 72.9 17.3 72.9 29.1S63.8 50.5 52.5 50.5 32.1 40.8 32.1 29 41.3 7.7 52.5 7.7" data-fill-palette-color="quaternary"></path><path fill="#110f10" d="M95 78.3C92.5 58.2 66.5 51.8 63.6 51.2L63.4 51.1 52.9 59.3 50 56.4 49.9 56.5V53.5H5V93.4H63.9V93.3C65.6 93 68.9 92.2 71.6 91.6 73 91.3 74.3 90.9 75 90.8 76.6 92.5 78.8 93.4 81.2 93.4 85.7 93.4 89.3 90 89.7 85.6 90 85.4 90.4 85.2 90.9 84.9 92.1 84.2 92.5 83.9 92.6 83.9 94.3 82.6 95.2 80.4 95 78.3M62.8 92.3H6.1V54.5H48.7V89.2H62.8zM88.6 85.1V85.2C88.4 89.2 85.2 92.3 81.2 92.3 78.4 92.3 75.9 90.8 74.6 88.3L74.3 87.7V87.6C74.2 87.4 74.2 87.2 74.1 87V86.7C74.1 86.6 74 86.4 74 86.3V84.9C74 80.8 77.3 77.5 81.4 77.5S88.8 80.8 88.8 84.9C88.6 85 88.6 85 88.6 85.1M91.9 82.9C91.8 83 91 83.5 90.3 83.9 90.1 84 89.9 84.1 89.7 84.3 89.4 79.9 85.7 76.4 81.2 76.4 76.5 76.4 72.7 80.2 72.7 84.9V86.6C72.7 86.8 72.8 86.9 72.8 87.2V87.5C72.9 87.7 72.9 87.9 73 88.2V88.3C73.1 88.5 73.2 88.8 73.3 89 73.5 89.4 73.7 89.7 73.9 90 73.1 90.2 72.1 90.4 71 90.7 68.4 91.3 65.3 92.1 63.6 92.4V88.4H49.8V57.8L52.7 60.8 63.6 52.3C67.4 53.2 91.6 59.6 94 78.5 94.1 80.2 93.3 81.9 91.9 82.9" data-fill-palette-color="quaternary"></path></g></svg></g></svg></g><g id="text-0"><path d="M32.357 98.497v0c-0.667 1.93-1.637 3.562-2.91 4.895-1.264 1.329-2.711 2.358-4.341 3.087v0l-1.51-2.547c1.382-0.592 2.596-1.454 3.64-2.586 1.045-1.132 1.817-2.42 2.316-3.862v0c0.63-1.821 0.705-3.389 0.226-4.703-0.472-1.312-1.382-2.201-2.728-2.667v0c-0.962-0.333-1.801-0.397-2.519-0.192-0.71 0.207-1.377 0.587-1.998 1.139-0.622 0.553-1.266 1.192-1.934 1.916v0l-3.075 3.288c-0.652 0.701-1.406 1.377-2.263 2.028-0.861 0.643-1.838 1.091-2.931 1.345-1.087 0.256-2.284 0.158-3.592-0.294v0c-1.372-0.475-2.465-1.258-3.279-2.351-0.814-1.093-1.31-2.377-1.489-3.854-0.179-1.476 0.008-3.013 0.56-4.609v0c0.568-1.642 1.396-3.031 2.486-4.17 1.088-1.132 2.252-1.996 3.492-2.593v0l1.524 2.508c-1.058 0.546-1.997 1.259-2.818 2.138-0.819 0.873-1.434 1.906-1.847 3.098v0c-0.53 1.533-0.585 2.896-0.164 4.089 0.414 1.191 1.236 2 2.467 2.426v0c0.879 0.304 1.681 0.33 2.407 0.078 0.728-0.258 1.394-0.667 1.996-1.226 0.609-0.558 1.182-1.135 1.719-1.732v0l2.985-3.276c0.806-0.899 1.659-1.663 2.559-2.292 0.9-0.629 1.884-1.036 2.952-1.219 1.075-0.181 2.286-0.039 3.632 0.427v0c1.411 0.488 2.563 1.299 3.456 2.433 0.886 1.132 1.432 2.491 1.638 4.077 0.21 1.595-0.009 3.328-0.657 5.201z" fill="#cef196" data-fill-palette-color="primary"></path><path d="M54.96 59.822l-2.259 2.444-22.716-21.009 2.26-2.443 6.247 5.777 3.13 3.061c-0.026-1.401 0.092-2.748 0.354-4.039 0.257-1.287 0.881-2.466 1.871-3.538v0c1.488-1.609 3.091-2.317 4.807-2.125 1.721 0.187 3.569 1.193 5.542 3.018v0l9.81 9.073-2.232 2.414-9.497-8.784c-1.47-1.359-2.759-2.113-3.869-2.261-1.11-0.149-2.163 0.315-3.158 1.391v0c-0.737 0.797-1.194 1.71-1.37 2.739-0.175 1.039-0.231 2.333-0.165 3.882v0z" fill="#cef196" data-fill-palette-color="primary"></path><path d="M97.142 30.614v0c-1.614 0.677-3.164 0.772-4.649 0.284-1.485-0.488-2.595-1.608-3.331-3.359v0c-0.893-2.127-0.614-4.165 0.835-6.112 1.452-1.941 4.16-4.019 8.124-6.235v0c-0.36-0.857-0.818-1.625-1.375-2.304-0.561-0.67-1.239-1.128-2.035-1.376-0.796-0.247-1.735-0.144-2.817 0.311v0c-1.151 0.483-2.137 1.158-2.958 2.025-0.815 0.864-1.503 1.698-2.064 2.499v0l-2.054-1.555c0.617-0.95 1.465-1.972 2.544-3.065 1.079-1.093 2.401-1.968 3.965-2.624v0c2.365-0.992 4.375-0.982 6.028 0.031 1.648 1.016 2.97 2.712 3.969 5.089v0l5.021 11.966-2.553 1.072-1.242-2.25-0.112 0.048c-0.607 1.167-1.341 2.259-2.202 3.275-0.861 1.016-1.893 1.777-3.094 2.28zM96.941 27.795v0c0.976-0.41 1.794-1.021 2.453-1.835 0.659-0.814 1.306-1.85 1.94-3.11v0l-2.355-5.612c-2.122 1.221-3.745 2.333-4.87 3.335-1.122 1.008-1.833 1.954-2.131 2.837-0.299 0.883-0.269 1.754 0.091 2.611v0c0.483 1.151 1.175 1.836 2.076 2.054 0.895 0.221 1.827 0.127 2.796-0.28z" fill="#cef196" data-fill-palette-color="primary"></path><path d="M145.736 21.67v0c-2.212-0.04-3.82-0.765-4.826-2.175-1.013-1.403-1.495-3.447-1.446-6.134v0l0.242-13.361 3.297 0.06-0.234 12.934c-0.036 1.988 0.26 3.442 0.887 4.362 0.635 0.928 1.681 1.405 3.14 1.432v0c1.092 0.02 2.078-0.247 2.957-0.802 0.885-0.554 1.859-1.466 2.92-2.736v0l0.272-15.01 3.297 0.06-0.381 21.034-2.737-0.05-0.225-3.332-0.153-0.003c-0.991 1.129-2.049 2.036-3.174 2.721-1.119 0.692-2.397 1.025-3.836 1z" fill="#cef196" data-fill-palette-color="primary"></path><path d="M191.887 32.001l-3.03-1.376 8.702-19.154 2.52 1.145-1.287 3.596 0.074 0.034c1.218-0.893 2.456-1.485 3.714-1.778 1.265-0.29 2.44-0.188 3.528 0.306v0c0.822 0.373 1.436 0.809 1.843 1.307v0l-1.851 2.278c-0.233-0.21-0.464-0.39-0.694-0.539-0.224-0.147-0.537-0.311-0.938-0.494v0c-0.809-0.368-1.816-0.423-3.022-0.165-1.199 0.26-2.509 1.077-3.93 2.451v0z" fill="#cef196" data-fill-palette-color="primary"></path><path d="M217.136 60.339v0c-0.32-0.341-0.59-0.693-0.809-1.055-0.214-0.357-0.386-0.704-0.514-1.039v0l2.388-1.278c0.117 0.244 0.248 0.488 0.394 0.733 0.141 0.24 0.293 0.446 0.456 0.619v0c0.831 0.886 1.84 1.311 3.027 1.278 1.182-0.039 2.416-0.355 3.702-0.948v0l1.542-0.707 9.579-20.656 2.347 2.502-5.647 11.355c-0.441 0.869-0.919 1.788-1.434 2.755-0.506 0.968-0.999 1.91-1.48 2.826v0l0.126 0.134c0.921-0.446 1.858-0.91 2.809-1.394 0.961-0.483 1.873-0.944 2.737-1.382v0l11.343-5.284 2.236 2.383-22.167 9.828c-1.315 0.582-2.605 1.002-3.87 1.259-1.271 0.262-2.48 0.257-3.629-0.014-1.144-0.267-2.189-0.905-3.136-1.915z" fill="#cef196" data-fill-palette-color="primary"></path><path d="M251.567 97.333v0c-0.621-1.637-0.662-3.189-0.124-4.656 0.539-1.467 1.697-2.538 3.473-3.213v0c2.157-0.819 4.183-0.47 6.08 1.046 1.89 1.518 3.873 4.296 5.95 8.334v0c0.869-0.33 1.652-0.761 2.35-1.295 0.689-0.537 1.171-1.199 1.445-1.986 0.275-0.787 0.204-1.729-0.213-2.826v0c-0.443-1.167-1.084-2.176-1.921-3.026-0.836-0.844-1.645-1.56-2.427-2.149v0l1.625-1.999c0.929 0.649 1.92 1.532 2.976 2.648 1.055 1.116 1.884 2.467 2.485 4.053v0c0.91 2.398 0.83 4.406-0.239 6.024-1.072 1.612-2.813 2.875-5.224 3.79v0l-12.132 4.605-0.982-2.588 2.29-1.164-0.043-0.114c-1.145-0.647-2.211-1.418-3.197-2.314-0.986-0.896-1.71-1.953-2.172-3.17zM254.391 97.23v0c0.376 0.99 0.959 1.828 1.749 2.515 0.791 0.687 1.804 1.369 3.041 2.046v0l5.69-2.16c-1.147-2.163-2.202-3.823-3.164-4.982-0.969-1.156-1.889-1.899-2.762-2.229-0.873-0.329-1.743-0.329-2.613 0.001v0c-1.167 0.443-1.875 1.111-2.124 2.004-0.251 0.886-0.19 1.821 0.183 2.805z" fill="#cef196" data-fill-palette-color="primary"></path><path d="M10.34 139.356c0-1.958 1.588-3.546 3.546-3.545 1.958 0 3.546 1.588 3.546 3.545 0 1.958-1.588 3.546-3.546 3.546-1.958 0-3.546-1.588-3.546-3.546z" fill="#cef196" data-fill-palette-color="primary"></path><path d="M266.828 139.356c0-1.958 1.588-3.546 3.546-3.545 1.958 0 3.546 1.588 3.546 3.545 0 1.958-1.588 3.546-3.546 3.546-1.958 0-3.546-1.588-3.546-3.546z" fill="#cef196" data-fill-palette-color="primary"></path></g><g id="text-1"><path d="M11.04 188.736v0c-0.739-2.092-1.021-4.133-0.846-6.124 0.177-1.984 0.71-3.838 1.598-5.561v0l3.005 1.141c-0.764 1.443-1.208 2.999-1.331 4.668-0.123 1.67 0.09 3.282 0.64 4.837v0c0.698 1.977 1.695 3.363 2.99 4.157 1.287 0.791 2.659 0.928 4.118 0.413v0c1.036-0.366 1.791-0.877 2.265-1.533 0.473-0.656 0.784-1.428 0.931-2.315 0.152-0.895 0.269-1.876 0.353-2.942v0l0.384-4.874c0.074-1.034 0.26-2.117 0.557-3.252 0.291-1.132 0.816-2.173 1.573-3.124 0.751-0.949 1.834-1.673 3.248-2.173v0c1.491-0.526 2.95-0.603 4.378-0.229 1.43 0.38 2.719 1.137 3.867 2.272 1.149 1.134 2.028 2.565 2.639 4.292v0c0.628 1.779 0.864 3.516 0.707 5.212-0.163 1.698-0.564 3.222-1.204 4.57v0l-2.996-1.089c0.53-1.188 0.848-2.429 0.951-3.726 0.101-1.302-0.075-2.596-0.529-3.882v0c-0.585-1.657-1.457-2.853-2.617-3.588-1.159-0.735-2.407-0.866-3.744-0.394v0c-0.953 0.337-1.65 0.86-2.09 1.569-0.449 0.705-0.74 1.502-0.872 2.391-0.141 0.885-0.238 1.761-0.291 2.629v0l-0.321 4.809c-0.074 1.3-0.278 2.523-0.614 3.671-0.338 1.141-0.902 2.153-1.691 3.036-0.785 0.874-1.907 1.569-3.365 2.085v0c-1.529 0.54-3.059 0.63-4.589 0.271-1.524-0.361-2.909-1.146-4.156-2.354-1.247-1.208-2.229-2.829-2.948-4.863z" fill="#cef196" data-fill-palette-color="primary"></path><path d="M39.225 234.12l-2.465-2.641 24.564-22.922 2.465 2.642-6.757 6.305-3.565 3.146c1.524 0.082 2.973 0.316 4.347 0.705 1.379 0.384 2.608 1.154 3.686 2.309v0c1.62 1.736 2.259 3.53 1.916 5.381-0.342 1.841-1.58 3.757-3.713 5.748v0l-10.611 9.901-2.43-2.604 10.269-9.582c1.588-1.481 2.505-2.82 2.753-4.017 0.252-1.191-0.163-2.368-1.246-3.528v0c-0.805-0.863-1.76-1.429-2.865-1.698-1.104-0.269-2.501-0.432-4.189-0.491v0z" fill="#cef196" data-fill-palette-color="primary"></path><path d="M88.729 269.474v0c-1.754-0.729-3.01-1.853-3.768-3.373-0.76-1.513-0.743-3.226 0.051-5.136v0c0.958-2.306 2.744-3.643 5.359-4.012 2.606-0.365 6.276 0.139 11.011 1.511v0c0.388-0.934 0.628-1.874 0.72-2.82 0.098-0.944-0.06-1.818-0.476-2.622-0.418-0.798-1.219-1.443-2.403-1.935v0c-1.247-0.518-2.519-0.764-3.816-0.737-1.288 0.023-2.455 0.126-3.5 0.309v0l-0.372-2.767c1.202-0.257 2.638-0.388 4.307-0.392 1.667 0.002 3.353 0.357 5.057 1.065v0c2.569 1.067 4.093 2.626 4.571 4.676 0.475 2.057 0.177 4.376-0.896 6.957v0l-5.405 13.008-2.782-1.156 0.799-2.665-0.122-0.051c-1.37 0.415-2.772 0.678-4.206 0.787-1.443 0.113-2.819-0.102-4.129-0.647zM90.753 267.175v0c1.059 0.44 2.155 0.605 3.288 0.495 1.133-0.11 2.427-0.402 3.881-0.878v0l2.535-6.1c-2.556-0.709-4.651-1.113-6.286-1.212-1.634-0.099-2.907 0.074-3.819 0.518-0.909 0.438-1.559 1.127-1.95 2.066v0c-0.518 1.247-0.519 2.301-0.003 3.163 0.51 0.859 1.295 1.508 2.354 1.948z" fill="#cef196" data-fill-palette-color="primary"></path><path d="M146.497 279.998v0c-2.395 0.047-4.17-0.671-5.325-2.155-1.156-1.477-1.762-3.674-1.82-6.592v0l-0.285-14.51 3.571-0.071 0.277 14.043c0.042 2.157 0.426 3.724 1.151 4.701 0.732 0.976 1.885 1.449 3.458 1.418v0c1.194-0.023 2.256-0.353 3.188-0.989 0.931-0.636 1.949-1.667 3.054-3.094v0l-0.321-16.291 3.572-0.071 0.449 22.835-2.971 0.059-0.387-3.607-0.152 0.003c-1.034 1.269-2.143 2.299-3.33 3.089-1.192 0.79-2.569 1.201-4.129 1.232z" fill="#cef196" data-fill-palette-color="primary"></path><path d="M200.917 266.679l-3.291 1.491-9.426-20.803 2.745-1.243 2.011 3.625 0.083-0.038c0.138-1.635 0.541-3.072 1.208-4.313 0.661-1.238 1.581-2.124 2.762-2.659v0c0.896-0.406 1.693-0.596 2.391-0.569v0l0.54 3.141c-0.339 0.042-0.651 0.101-0.936 0.178-0.285 0.077-0.644 0.214-1.077 0.41v0c-0.884 0.4-1.649 1.187-2.295 2.358-0.649 1.166-0.92 2.819-0.814 4.961v0z" fill="#cef196" data-fill-palette-color="primary"></path><path d="M246.129 247.28v0c-0.35 0.369-0.714 0.684-1.09 0.944-0.372 0.255-0.736 0.461-1.092 0.619v0l-1.536-2.507c0.255-0.141 0.51-0.297 0.765-0.467 0.255-0.17 0.468-0.346 0.641-0.528v0c0.91-0.96 1.305-2.082 1.184-3.365-0.116-1.278-0.533-2.599-1.251-3.962v0l-0.864-1.619-23.001-9.066 2.563-2.704 12.671 5.391c0.967 0.43 1.992 0.892 3.076 1.386 1.079 0.489 2.13 0.963 3.155 1.42v0l0.14-0.147c-0.544-0.965-1.108-1.948-1.692-2.95-0.584-1.011-1.14-1.973-1.668-2.886v0l-6.454-11.95 2.443-2.578 12.06 23.391c0.714 1.397 1.253 2.772 1.615 4.125 0.363 1.363 0.434 2.674 0.214 3.933-0.221 1.259-0.847 2.432-1.879 3.52z" fill="#cef196" data-fill-palette-color="primary"></path><path d="M272.594 190.696v0c-0.69 1.77-1.787 3.05-3.289 3.841-1.496 0.793-3.209 0.813-5.137 0.062v0c-2.326-0.907-3.702-2.664-4.128-5.27-0.422-2.597 0.001-6.278 1.269-11.041v0c-0.942-0.367-1.887-0.587-2.835-0.658-0.946-0.077-1.816 0.1-2.612 0.533-0.789 0.435-1.416 1.25-1.882 2.445v0c-0.491 1.258-0.708 2.535-0.653 3.831 0.051 1.287 0.18 2.452 0.386 3.493v0l-2.758 0.433c-0.284-1.196-0.446-2.628-0.487-4.298-0.035-1.667 0.283-3.36 0.954-5.079v0c1.011-2.592 2.536-4.149 4.575-4.672 2.046-0.52 4.371-0.273 6.975 0.742v0l13.124 5.118-1.095 2.807-2.682-0.74-0.048 0.123c0.445 1.361 0.738 2.757 0.879 4.188 0.145 1.44-0.04 2.821-0.556 4.142zM270.25 188.723v0c0.417-1.068 0.558-2.168 0.424-3.298-0.135-1.13-0.456-2.417-0.964-3.861v0l-6.154-2.4c-0.653 2.571-1.011 4.675-1.074 6.311-0.063 1.636 0.138 2.905 0.602 3.807 0.458 0.899 1.161 1.534 2.109 1.904v0c1.258 0.491 2.312 0.468 3.162-0.067 0.847-0.529 1.479-1.328 1.895-2.396z" fill="#cef196" data-fill-palette-color="primary"></path></g></svg></g></svg></g></svg></g><g></g></svg></g><defs></defs></svg><rect width="280" height="280" fill="none" stroke="none" visibility="hidden"></rect></g></svg></g></svg>